<?xml version="1.0" encoding="utf-8"?>
<!-- Generator: Adobe Illustrator 26.5.0, SVG Export Plug-In . SVG Version: 6.00 Build 0)  -->
<svg version="1.1" id="Capa_1" xmlns="http://www.w3.org/2000/svg" x="0px"
     y="0px"
     viewBox="0 0 800 800" style="enable-background:new 0 0 800 800;" xml:space="preserve">
<style type="text/css">
	.st0 {
    fill: #FFFFFF;
  }
</style>
  <polygon class="st0" points="124,177 48,424 103,591 348,768 560,749 722.7,594 765,465.3 734,312 679,195 607,120 498,56 309,63
	165,124 "/>
  <g>
	<path d="M401.3,1.2c-0.4,0-0.8,0.1-1.3,0.1c-0.4,0-0.8-0.1-1.3-0.1C178.5,1.2,0,179.8,0,400s178.5,398.8,398.7,398.8
		c0.4,0,0.8-0.1,1.3-0.1c0.4,0,0.8,0.1,1.3,0.1C621.5,798.8,800,620.2,800,400S621.5,1.2,401.3,1.2z M427.4,117L531.3,105
		c39.2,17.4,74.2,42.3,103.4,72.9l13.2,105.8l-128.3,33.7l-92.1-64.1L427.4,117L427.4,117z M165.3,178
		c29.2-30.6,64.2-55.6,103.4-72.9L372.6,117v136.3l-92.1,64.1l-128.3-33.7L165.3,178z M116.7,556.1c-22.3-40.1-36-85.5-39.4-133.8
		l54.7-91.3l130,34.1l32.9,108.5l-84.6,126.1L116.7,556.1z M473.8,714c-23.4,5.4-47.6,8.5-72.5,8.5c-0.4,0-0.8-0.1-1.3-0.1
		s-0.8,0.1-1.3,0.1c-25-0.1-49.2-3.2-72.5-8.5l-73.3-86.7l82.7-123.1H400h64.4l82.7,123.1L473.8,714z M589.7,599.7l-84.6-126.1
		L538,365.1L667.9,331l54.7,91.3c-3.4,48.3-17.1,93.7-39.4,133.8L589.7,599.7z"/>
</g>
</svg>
